<svg width="422.00000000000006" height="323" xmlns="http://www.w3.org/2000/svg">

 <g>
  <title>background</title>
  <rect fill="none" id="canvas_background" height="325" width="424" y="-1" x="-1"/>
 </g>
 <g>
  <title>Layer 1</title>
  <path id="svg_2" stroke-width="30" stroke-miterlimit="10" stroke="#101d42" fill="none" d="m403.230353,264.982822c0,21.452 -17.396,39.161 -38.814,39.161l-208.164,0c-34.792,0 -62.432,-28.538 -62.432,-63.33c0,-14.611 4.985,-28.055 13.374,-38.781c11.483,-14.817 29.428,-24.341 49.609,-24.341c3.025,0 6.016,0.086 8.939,0.533c6.326,-25.75 22.518,-47.641 44.349,-61.358c15.505,-9.798 33.898,-15.432 53.563,-15.432c55.66,0 100.765,45.107 100.765,100.767c0,8.182 -0.963,16.125 -2.819,23.757c0.928,-0.069 1.857,0.071 2.819,0.071c21.416,-0.001 38.811,17.534 38.811,38.953z"/>
  <path id="svg_3" stroke-width="30" stroke-miterlimit="10" stroke="#101d42" fill="#edb95a" d="m210.089353,116.873822c-21.831,13.717 -38.023,35.617 -44.349,61.366c-2.922,-0.447 -5.913,-0.516 -8.939,-0.516c-20.18,0 -38.126,9.557 -49.609,24.375c-23.034,-12.136 -38.745,-36.27 -38.745,-64.117c0,-39.983 32.42,-72.402 72.402,-72.402c32.661,0 60.233,21.591 69.24,51.294z"/>
  <line id="svg_4" y2="40.143822" y1="2.143822" x2="141.143353" x1="141.143353" stroke-width="30" stroke-miterlimit="10" stroke="#101d42" fill="none"/>
  <line id="svg_5" y2="139.143822" y1="139.143822" x2="41.143353" x1="3.143353" stroke-width="30" stroke-miterlimit="10" stroke="#101d42" fill="none"/>
  <line id="svg_6" y2="43.389822" y1="71.314822" x2="236.690353" x1="208.765353" stroke-width="30" stroke-miterlimit="10" stroke="#101d42" fill="none"/>
  <line id="svg_7" y2="206.293822" y1="234.218822" x2="68.850353" x1="40.925353" stroke-width="30" stroke-miterlimit="10" stroke="#101d42" fill="none"/>
  <line id="svg_8" y2="71.314822" y1="43.389822" x2="68.850353" x1="40.925353" stroke-width="30" stroke-miterlimit="10" stroke="#101d42" fill="none"/>
 </g>
</svg>