<svg width="32" height="32" xmlns="http://www.w3.org/2000/svg">
 <title/>

 <desc/>
 <g>
  <title>background</title>
  <rect fill="none" id="canvas_background" height="34" width="34" y="-1" x="-1"/>
 </g>
 <g>
  <title>Layer 1</title>
  <path fill="#101d42" id="svg_2" d="m8,28c-1.654,0 -3,-1.346 -3,-3s1.346,-3 3,-3s3,1.346 3,3s-1.346,3 -3,3zm0,-4c-0.552,0 -1,0.448 -1,1s0.448,1 1,1s1,-0.448 1,-1s-0.448,-1 -1,-1z"/>
  <path fill="#101d42" id="svg_3" d="m16,30c-1.654,0 -3,-1.346 -3,-3s1.346,-3 3,-3s3,1.346 3,3s-1.346,3 -3,3zm0,-4c-0.552,0 -1,0.448 -1,1s0.448,1 1,1s1,-0.448 1,-1s-0.448,-1 -1,-1z"/>
  <path fill="#101d42" id="svg_4" d="m24,28c-1.654,0 -3,-1.346 -3,-3s1.346,-3 3,-3s3,1.346 3,3s-1.346,3 -3,3zm0,-4c-0.552,0 -1,0.448 -1,1s0.448,1 1,1s1,-0.448 1,-1s-0.448,-1 -1,-1z"/>
  <path fill="#101d42" id="svg_6" d="m23,20l-2,0l0,-2l2,0c2.757,0 5,-2.243 5,-5c0,-2.515 -1.876,-4.646 -4.364,-4.958c-0.41,-0.052 -0.746,-0.35 -0.846,-0.75c-0.779,-3.115 -3.571,-5.292 -6.79,-5.292c-3.859,0 -7,3.141 -7,7c0,0.553 -0.447,1 -1,1c-2.206,0 -4,1.794 -4,4s1.794,4 4,4l7,0l0,2l-7,0c-3.309,0 -6,-2.691 -6,-6c0,-2.984 2.19,-5.467 5.047,-5.925c0.465,-4.529 4.303,-8.075 8.953,-8.075c3.916,0 7.341,2.507 8.547,6.173c3.151,0.709 5.453,3.533 5.453,6.827c0,3.859 -3.141,7 -7,7z"/>
  <rect fill="#101d42" id="svg_7" y="18" x="17" width="2" height="2"/>
 </g>
</svg>