<svg width="32" height="32" xmlns="http://www.w3.org/2000/svg">
 <title/>

 <desc/>
 <g>
  <title>background</title>
  <rect fill="none" id="canvas_background" height="402" width="582" y="-1" x="-1"/>
 </g>
 <g>
  <title>Layer 1</title>
  <circle id="svg_2" r="9" fill="#efc87f" cy="16" cx="16"/>
  <path id="svg_4" fill="#101d42" d="m16,26c-5.514,0 -10,-4.486 -10,-10s4.486,-10 10,-10s10,4.486 10,10s-4.486,10 -10,10zm0,-18c-4.411,0 -8,3.589 -8,8s3.589,8 8,8s8,-3.589 8,-8s-3.589,-8 -8,-8z"/>
  <rect id="svg_5" x="15" width="2" height="4" fill="#101d42"/>
  <rect id="svg_6" y="4.101" x="5.101" width="2" transform="matrix(0.7071,-0.7071,0.7071,0.7071,-2.5269,6.1006) " height="4" fill="#101d42"/>
  <rect id="svg_7" y="15" width="4" height="2" fill="#101d42"/>
  <rect id="svg_8" y="24.9" x="4.101" width="4" transform="matrix(0.7071,-0.7071,0.7071,0.7071,-16.5268,11.8995) " height="2" fill="#101d42"/>
  <rect id="svg_9" y="28" x="15" width="2" height="4" fill="#101d42"/>
  <rect id="svg_10" y="23.9" x="24.9" width="2" transform="matrix(0.7071,-0.7071,0.7071,0.7071,-10.7279,25.8994) " height="4" fill="#101d42"/>
  <rect id="svg_11" y="15" x="28" width="4" height="2" fill="#101d42"/>
  <rect id="svg_12" y="5.101" x="23.9" width="4" transform="matrix(0.7071,-0.7071,0.7071,0.7071,3.272,20.1005) " height="2" fill="#101d42"/>
 </g>
</svg>