<svg width="434.00000000000006" height="397" xmlns="http://www.w3.org/2000/svg">

 <g>
  <title>background</title>
  <rect fill="none" id="canvas_background" height="399" width="436" y="-1" x="-1"/>
 </g>
 <g>
  <title>Layer 1</title>
  <path fill-opacity="0" id="svg_1" stroke-width="30" stroke-miterlimit="10" stroke="#101d42" fill="#101d42" d="m158.285919,277.000549l-62.218,0l0,0c-0.221,0 0.221,0 0,0c-44.977,0 -80.782,-36.663 -80.782,-81.64c0,-44.977 36.456,-81.537 81.433,-81.537c3.922,0 7.778,0.222 11.557,0.769c13.941,-56.938 65.316,-99.218 126.554,-99.218c71.961,0 130.293,58.319 130.293,130.28c0,10.593 -1.264,20.879 -3.661,30.743c1.212,-0.091 2.423,-0.03 3.661,-0.03c27.7,0 50.163,22.563 50.163,50.263s-22.463,50.37 -50.163,50.37l-67.837,0"/>
  <polygon fill="#efc87f" id="svg_2" stroke-width="4" stroke-miterlimit="10" stroke-linecap="round" stroke="#efc87f" points="245.99090576171875,160.67855834960938 174.9689178466797,261.2935485839844 234.1539306640625,287.9265441894531 195.6839141845703,376.45654296875 278.54193115234375,279.0485534667969 216.39791870117188,243.53753662109375 "/>
  <line id="svg_3" y2="367.258549" y1="319.151549" x2="135.733919" x1="164.285919" stroke-width="30" stroke-miterlimit="10" stroke="#101d42" fill="none"/>
  <line id="svg_4" y2="370.258549" y1="322.151549" x2="264.733919" x1="293.285919" stroke-width="30" stroke-miterlimit="10" stroke="#101d42" fill="none"/>
  <line id="svg_5" y2="370.258549" y1="322.151549" x2="326.733919" x1="355.285919" stroke-width="30" stroke-miterlimit="10" stroke="#101d42" fill="none"/>
 </g>
</svg>