<svg width="32" height="32" xmlns="http://www.w3.org/2000/svg">
 <title/>

 <desc/>
 <g>
  <title>background</title>
  <rect fill="none" id="canvas_background" height="34" width="34" y="-1" x="-1"/>
 </g>
 <g>
  <title>Layer 1</title>
  <path stroke="#ccdad1" fill="#ccdad1" stroke-opacity="0" id="svg_2" d="m31.033496,18.390625l-1.335728,0l2.199796,-4.425963c0.14981,-0.30135 0.134346,-0.659083 -0.042527,-0.945852s-0.486159,-0.460775 -0.821541,-0.460775l-2.983642,0c-0.399172,-2.771452 -2.455923,-5.046162 -5.186337,-5.664416c-1.165621,-3.563712 -4.475946,-6.000762 -8.260832,-6.000762c-4.495277,0 -8.204774,3.44706 -8.653238,7.849693c-2.761343,0.445221 -4.878018,2.858941 -4.878018,5.759682c0,3.216673 2.600901,5.832589 5.79911,5.832589l6.765628,0l0,-1.944196l-6.765628,0c-2.132139,0 -3.866073,-1.743944 -3.866073,-3.888393s1.733934,-3.888393 3.866073,-3.888393c0.533518,0 0.966518,-0.434528 0.966518,-0.972098c0,-3.751327 3.034867,-6.804688 6.765628,-6.804688c3.111222,0 5.809741,2.116258 6.562659,5.144344c0.096652,0.388839 0.421402,0.678525 0.817674,0.729074c2.077048,0.262467 3.707564,1.846015 4.114468,3.847565l-2.796137,0c-0.461029,0 -0.857302,0.327597 -0.947188,0.781567l-1.005179,5.051022l-1.913706,0l0,1.944196l1.527099,0l-0.542217,2.725763c-0.057025,0.285797 0.017397,0.582287 0.200069,0.806842c0.184605,0.224555 0.45813,0.355788 0.748085,0.355788l1.661445,0l-1.631483,6.56944c-0.112116,0.448137 0.106317,0.913772 0.52192,1.114025c0.132413,0.063186 0.273525,0.093321 0.414636,0.093321c0.296721,0 0.58571,-0.138038 0.773215,-0.388839l8.698665,-11.665179c0.220366,-0.294546 0.255161,-0.688246 0.091819,-1.017787c-0.164308,-0.329541 -0.498723,-0.53757 -0.865034,-0.53757zm-3.722062,1.48245c0.176873,0.286769 0.487125,0.461747 0.822507,0.461747l0.966518,0l-4.667317,6.258368l0.772248,-3.106826c0.072489,-0.290657 0.007732,-0.59784 -0.175906,-0.833088c-0.182672,-0.23622 -0.463929,-0.374258 -0.761616,-0.374258l-1.720403,0l1.546429,-7.776786l5.375775,0l-2.199796,4.425963c-0.150777,0.300378 -0.134346,0.658111 0.04156,0.944879z"/>
  <rect fill="#ccdad1" id="svg_3" y="23.768" x="2.402" width="6.393" transform="matrix(0.5,-0.866,0.866,0.5,-18.6507,17.2322) " height="2"/>
  <rect fill="#ccdad1" id="svg_4" y="29.134" x="1.5" width="2" transform="matrix(0.4999,-0.8661,0.8661,0.4999,-24.8478,17.2345) " height="2"/>
  <rect fill="#ccdad1" id="svg_5" y="23.768" x="7.402" width="6.393" transform="matrix(0.5,-0.866,0.866,0.5,-16.1507,21.5623) " height="2"/>
  <rect fill="#ccdad1" id="svg_6" y="29.134" x="6.5" width="2" transform="matrix(0.4999,-0.8661,0.8661,0.4999,-22.3474,21.5649) " height="2"/>
  <rect fill="#ccdad1" id="svg_7" y="23.768" x="12.402" width="6.393" transform="matrix(0.4999,-0.8661,0.8661,0.4999,-13.6506,25.8951) " height="2"/>
  <rect fill="#ccdad1" id="svg_8" y="29.134" x="11.5" width="2" transform="matrix(0.4999,-0.8661,0.8661,0.4999,-19.847,25.8952) " height="2"/>
  <rect fill="#ccdad1" stroke="#ccdad1" id="svg_9" y="18.267857" x="15.535714" width="2" height="2"/>
 </g>
</svg>