<svg width="515" height="512" xmlns="http://www.w3.org/2000/svg">

 <g>
  <title>background</title>
  <rect fill="#81523f" id="canvas_background" height="514" width="517" y="-1" x="-1"/>
 </g>
 <g>
  <title>Layer 1</title>
  <path stroke-width="3" stroke="#ccdad1" stroke-opacity="0" id="svg_3" fill="#ccdad1" d="m33.604,256c-1.042,-5.167 -1.604,-10.521 -1.604,-16c0,-44.188 35.812,-80 80,-80c10.812,0 21.062,2.208 30.438,6.083c21.229,-41.416 63.853,-70.083 113.562,-70.083s92.334,28.667 113.541,70.083c9.397,-3.875 19.668,-6.083 30.459,-6.083c44.188,0 80,35.812 80,80c0,5.479 -0.562,10.833 -1.625,16l32,0c0.792,-5.271 1.625,-10.521 1.625,-16c0,-61.75 -50.25,-112 -112,-112c-5.312,0 -10.562,0.375 -15.792,1.125c-29.874,-40.708 -77.02,-65.125 -128.208,-65.125c-51.188,0 -98.312,24.417 -128.208,65.125c-5.23,-0.75 -10.48,-1.125 -15.792,-1.125c-61.75,0 -112,50.25 -112,112c0,5.479 0.854,10.729 1.625,16l31.979,0zm462.396,32l-480,0c-8.833,0 -16,7.167 -16,16s7.167,16 16,16l480,0c8.833,0 16,-7.167 16,-16s-7.167,-16 -16,-16zm0,64l-480,0c-8.833,0 -16,7.167 -16,16s7.167,16 16,16l480,0c8.833,0 16,-7.167 16,-16s-7.167,-16 -16,-16zm0,64l-480,0c-8.833,0 -16,7.167 -16,16s7.167,16 16,16l480,0c8.833,0 16,-7.167 16,-16s-7.167,-16 -16,-16z"/>
 </g>
</svg>