<svg width="26" height="26" xmlns="http://www.w3.org/2000/svg">

 <g>
  <title>background</title>
  <rect fill="none" id="canvas_background" height="402" width="582" y="-1" x="-1"/>
 </g>
 <g>
  <title>Layer 1</title>
  <path id="svg_2" fill="#06a77d" d="m24.24805,18.5l-22.49805,0c-0.41406,0 -0.75,0.33594 -0.75,0.75l0,5c0,0.41406 0.33594,0.75 0.75,0.75l22.49805,0c0.41406,0 0.75,-0.33594 0.75,-0.75l0,-5c0,-0.41406 -0.33594,-0.75 -0.75,-0.75zm-0.75,5l-20.99805,0l0,-3.5l20.99805,0l0,3.5z"/>
  <path id="svg_3" fill="#06a77d" d="m24.25,9.75l-22.5,0c-0.41406,0 -0.75,0.33594 -0.75,0.75l0,5c0,0.41406 0.33594,0.75 0.75,0.75l22.5,0c0.41406,0 0.75,-0.33594 0.75,-0.75l0,-5c0,-0.41406 -0.33594,-0.75 -0.75,-0.75zm-0.75,5l-21,0l0,-3.5l21,0l0,3.5z"/>
  <path id="svg_4" fill="#06a77d" d="m1.75,7.5l22.49805,0c0.41406,0 0.75,-0.33594 0.75,-0.75l0,-5c0,-0.41406 -0.33594,-0.75 -0.75,-0.75l-22.49805,0c-0.41406,0 -0.75,0.33594 -0.75,0.75l0,5c0,0.41406 0.33594,0.75 0.75,0.75zm0.75,-5l20.99805,0l0,3.5l-20.99805,0l0,-3.5z"/>
 </g>
</svg>