<svg width="32" height="32" xmlns="http://www.w3.org/2000/svg">
 <title/>

 <desc/>
 <g>
  <title>background</title>
  <rect fill="none" id="canvas_background" height="402" width="582" y="-1" x="-1"/>
 </g>
 <g>
  <title>Layer 1</title>
  <circle id="svg_3" r="8" fill="#efc87f" cy="15" cx="17"/>
  <path id="svg_4" fill="#ffffff" d="m5,31c-2.21,0 -4,-1.79 -4,-4s1.79,-4 4,-4c0,-3.31 2.69,-6 6,-6c2.63,0 4.87,1.7 5.67,4.05c2.44,0.32 4.33,2.42 4.33,4.95c0,2.76 -2.24,5 -5,5l-11,0z"/>
  <path id="svg_6" fill="#101d42" d="m26,15c0,-4.962 -4.037,-9 -9,-9s-9,4.038 -9,9c0,0.542 0.066,1.078 0.162,1.609c-2.182,0.973 -3.782,3.026 -4.103,5.48c-2.309,0.441 -4.059,2.475 -4.059,4.911c0,2.757 2.243,5 5,5l4,0l0,-2l-4,0c-1.654,0 -3,-1.346 -3,-3s1.346,-3 3,-3c0.553,0 1,-0.448 1,-1c0,-2.757 2.243,-5 5,-5c2.139,0 4.037,1.355 4.724,3.372c0.122,0.36 0.438,0.62 0.816,0.669c1.973,0.259 3.46,1.961 3.46,3.959c0,2.206 -1.794,4 -4,4l-1,0l0,2l1,0c3.309,0 6,-2.691 6,-6c0,-1.105 -0.313,-2.143 -0.844,-3.041c2.961,-1.542 4.844,-4.567 4.844,-7.959zm-6.182,6.396c-0.693,-0.576 -1.508,-1.012 -2.419,-1.228c-1.105,-2.516 -3.606,-4.168 -6.399,-4.168c-0.309,0 -0.611,0.027 -0.91,0.066c-0.054,-0.352 -0.09,-0.708 -0.09,-1.066c0,-3.86 3.141,-7 7,-7s7,3.14 7,7c0,2.794 -1.639,5.275 -4.182,6.396z"/>
  <rect id="svg_7" x="16" width="2" height="4" fill="#101d42"/>
  <rect id="svg_8" y="3.808" x="6.808" width="2" transform="matrix(0.7071,-0.7071,0.7071,0.7071,-1.8198,7.2218) " height="4" fill="#101d42"/>
  <rect id="svg_9" y="22.193" x="25.192" width="2" transform="matrix(0.7071,-0.7071,0.7071,0.7071,-9.435,25.6066) " height="4" fill="#101d42"/>
  <rect id="svg_10" y="4.808" x="24.193" width="4" transform="matrix(0.7071,-0.7071,0.7071,0.7071,3.565,20.2218) " height="2" fill="#101d42"/>
  <rect id="svg_11" y="14" x="2" width="4" height="2" fill="#101d42"/>
  <rect id="svg_12" y="14" x="28" width="4" height="2" fill="#101d42"/>
  <rect id="svg_13" y="30" x="11" width="2" height="2" fill="#101d42"/>
 </g>
</svg>